<svg class="animated" id="freepik_stories-robot-face" xmlns="http://www.w3.org/2000/svg" viewBox="0 0 500 500" version="1.1" xmlns:xlink="http://www.w3.org/1999/xlink" xmlns:svgjs="http://svgjs.com/svgjs"><style>svg#freepik_stories-robot-face:not(.animated) .animable {opacity: 0;}svg#freepik_stories-robot-face.animated #freepik--background-complete--inject-273 {animation: 1.5s Infinite  linear wind;animation-delay: 0s;}svg#freepik_stories-robot-face.animated #freepik--robot-face--inject-273 {animation: 1.5s Infinite  linear floating;animation-delay: 0s;}            @keyframes wind {                0% {                    transform: rotate( 0deg );                }                25% {                    transform: rotate( 1deg );                }                75% {                    transform: rotate( -1deg );                }            }                    @keyframes floating {                0% {                    opacity: 1;                    transform: translateY(0px);                }                50% {                    transform: translateY(-10px);                }                100% {                    opacity: 1;                    transform: translateY(0px);                }            }        </style><g id="freepik--background-complete--inject-273" class="animable animator-active" style="transform-origin: 250px 228.23px;"><rect y="382.4" width="500" height="0.25" style="fill: rgb(235, 235, 235); transform-origin: 250px 382.525px;" id="el4d4uwfabpqi" class="animable"></rect><rect x="416.78" y="398.49" width="33.12" height="0.25" style="fill: rgb(235, 235, 235); transform-origin: 433.34px 398.615px;" id="el3cxi3sq2vtn" class="animable"></rect><rect x="322.53" y="401.21" width="8.69" height="0.25" style="fill: rgb(235, 235, 235); transform-origin: 326.875px 401.335px;" id="elk49tlgxszrm" class="animable"></rect><rect x="396.59" y="389.21" width="19.19" height="0.25" style="fill: rgb(235, 235, 235); transform-origin: 406.185px 389.335px;" id="eln1c1wpbughn" class="animable"></rect><rect x="52.46" y="390.89" width="43.19" height="0.25" style="fill: rgb(235, 235, 235); transform-origin: 74.055px 391.015px;" id="el6o5ffrt0j5e" class="animable"></rect><rect x="104.56" y="390.89" width="6.33" height="0.25" style="fill: rgb(235, 235, 235); transform-origin: 107.725px 391.015px;" id="eld5efqwds7r" class="animable"></rect><rect x="131.47" y="395.11" width="93.68" height="0.25" style="fill: rgb(235, 235, 235); transform-origin: 178.31px 395.235px;" id="eljcz4zhv2qdd" class="animable"></rect><path d="M237,337.8H43.91a5.71,5.71,0,0,1-5.7-5.71V60.66A5.71,5.71,0,0,1,43.91,55H237a5.71,5.71,0,0,1,5.71,5.71V332.09A5.71,5.71,0,0,1,237,337.8ZM43.91,55.2a5.46,5.46,0,0,0-5.45,5.46V332.09a5.46,5.46,0,0,0,5.45,5.46H237a5.47,5.47,0,0,0,5.46-5.46V60.66A5.47,5.47,0,0,0,237,55.2Z" style="fill: rgb(235, 235, 235); transform-origin: 140.46px 196.4px;" id="elbl6wixmqh56" class="animable"></path><path d="M453.31,337.8H260.21a5.72,5.72,0,0,1-5.71-5.71V60.66A5.72,5.72,0,0,1,260.21,55h193.1A5.71,5.71,0,0,1,459,60.66V332.09A5.71,5.71,0,0,1,453.31,337.8ZM260.21,55.2a5.47,5.47,0,0,0-5.46,5.46V332.09a5.47,5.47,0,0,0,5.46,5.46h193.1a5.47,5.47,0,0,0,5.46-5.46V60.66a5.47,5.47,0,0,0-5.46-5.46Z" style="fill: rgb(235, 235, 235); transform-origin: 356.75px 196.4px;" id="elu9srst48e0j" class="animable"></path><rect x="76.77" y="111.27" width="195.56" height="115.15" style="fill: rgb(235, 235, 235); transform-origin: 174.55px 168.845px;" id="elev9m7775ir" class="animable"></rect><rect x="79.95" y="120.73" width="189.2" height="101.48" style="fill: rgb(224, 224, 224); transform-origin: 174.55px 171.47px;" id="elq3lugeocde" class="animable"></rect><rect x="89.21" y="131.29" width="62.05" height="2.92" style="fill: rgb(240, 240, 240); transform-origin: 120.235px 132.75px;" id="elh9wds56938b" class="animable"></rect><rect x="89.21" y="137.44" width="62.05" height="2.92" style="fill: rgb(240, 240, 240); transform-origin: 120.235px 138.9px;" id="ele89fpup7lng" class="animable"></rect><rect x="89.21" y="143.59" width="62.05" height="2.92" style="fill: rgb(240, 240, 240); transform-origin: 120.235px 145.05px;" id="elp5f0eq3654" class="animable"></rect><rect x="99.21" y="149.73" width="62.05" height="2.92" style="fill: rgb(240, 240, 240); transform-origin: 130.235px 151.19px;" id="elymywcullgk" class="animable"></rect><rect x="99.21" y="155.88" width="62.05" height="2.92" style="fill: rgb(240, 240, 240); transform-origin: 130.235px 157.34px;" id="eletz0yjakde" class="animable"></rect><rect x="99.21" y="162.03" width="62.05" height="2.92" style="fill: rgb(240, 240, 240); transform-origin: 130.235px 163.49px;" id="elihtf2dwl62q" class="animable"></rect><rect x="109.22" y="168.17" width="62.05" height="2.92" style="fill: rgb(240, 240, 240); transform-origin: 140.245px 169.63px;" id="el03l50yf9o8s2" class="animable"></rect><rect x="109.22" y="174.32" width="62.05" height="2.92" style="fill: rgb(240, 240, 240); transform-origin: 140.245px 175.78px;" id="elwes800gpfgg" class="animable"></rect><rect x="99.21" y="180.47" width="62.05" height="2.92" style="fill: rgb(240, 240, 240); transform-origin: 130.235px 181.93px;" id="elvbq9of2ws7" class="animable"></rect><rect x="109.22" y="186.62" width="62.05" height="2.92" style="fill: rgb(240, 240, 240); transform-origin: 140.245px 188.08px;" id="elrqnfjyzrld" class="animable"></rect><rect x="109.22" y="192.76" width="62.05" height="2.92" style="fill: rgb(240, 240, 240); transform-origin: 140.245px 194.22px;" id="el7r1n4gejgzi" class="animable"></rect><rect x="89.21" y="198.91" width="62.05" height="2.92" style="fill: rgb(240, 240, 240); transform-origin: 120.235px 200.37px;" id="el0gq88oaxb3t4" class="animable"></rect><rect x="89.21" y="205.06" width="62.05" height="2.92" style="fill: rgb(240, 240, 240); transform-origin: 120.235px 206.52px;" id="elsdq0a19cgk" class="animable"></rect><rect x="89.21" y="211.2" width="62.05" height="2.92" style="fill: rgb(240, 240, 240); transform-origin: 120.235px 212.66px;" id="elu2bah12ucu" class="animable"></rect><rect x="305.37" y="269.96" width="127.76" height="75.23" style="fill: rgb(235, 235, 235); transform-origin: 369.25px 307.575px;" id="elmym3fmt9ybg" class="animable"></rect><rect x="307.45" y="276.14" width="123.61" height="66.3" style="fill: rgb(224, 224, 224); transform-origin: 369.255px 309.29px;" id="el9s2nh4u3qz4" class="animable"></rect><rect x="313.5" y="283.04" width="40.54" height="1.91" style="fill: rgb(240, 240, 240); transform-origin: 333.77px 283.995px;" id="elpe7qebwosh" class="animable"></rect><rect x="313.5" y="287.05" width="40.54" height="1.91" style="fill: rgb(240, 240, 240); transform-origin: 333.77px 288.005px;" id="elcr7g647em3g" class="animable"></rect><rect x="313.5" y="291.07" width="40.54" height="1.91" style="fill: rgb(240, 240, 240); transform-origin: 333.77px 292.025px;" id="elv40qlt1mmir" class="animable"></rect><rect x="320.03" y="295.09" width="40.54" height="1.91" style="fill: rgb(240, 240, 240); transform-origin: 340.3px 296.045px;" id="el2h7cpjp4yhx" class="animable"></rect><rect x="320.03" y="299.1" width="40.54" height="1.91" style="fill: rgb(240, 240, 240); transform-origin: 340.3px 300.055px;" id="elzfkdrvswxfe" class="animable"></rect><rect x="320.03" y="303.12" width="40.54" height="1.91" style="fill: rgb(240, 240, 240); transform-origin: 340.3px 304.075px;" id="elcey3sbwozz8" class="animable"></rect><rect x="326.57" y="307.13" width="40.54" height="1.91" style="fill: rgb(240, 240, 240); transform-origin: 346.84px 308.085px;" id="eluu0pfe0peja" class="animable"></rect><rect x="326.57" y="311.15" width="40.54" height="1.91" style="fill: rgb(240, 240, 240); transform-origin: 346.84px 312.105px;" id="elo962rtf2lq8" class="animable"></rect><rect x="320.03" y="315.17" width="40.54" height="1.91" style="fill: rgb(240, 240, 240); transform-origin: 340.3px 316.125px;" id="elngrt6wsqtnf" class="animable"></rect><rect x="326.57" y="319.18" width="40.54" height="1.91" style="fill: rgb(240, 240, 240); transform-origin: 346.84px 320.135px;" id="elwqh8sjvyvb" class="animable"></rect><rect x="326.57" y="323.2" width="40.54" height="1.91" style="fill: rgb(240, 240, 240); transform-origin: 346.84px 324.155px;" id="eljmvntj39do" class="animable"></rect><rect x="313.5" y="327.21" width="40.54" height="1.91" style="fill: rgb(240, 240, 240); transform-origin: 333.77px 328.165px;" id="elyjsbe957z08" class="animable"></rect><rect x="313.5" y="331.23" width="40.54" height="1.91" style="fill: rgb(240, 240, 240); transform-origin: 333.77px 332.185px;" id="elwpfxma5rell" class="animable"></rect><rect x="313.5" y="335.25" width="40.54" height="1.91" style="fill: rgb(240, 240, 240); transform-origin: 333.77px 336.205px;" id="elcx2wodlaepr" class="animable"></rect><rect x="359.8" y="181.95" width="40.54" height="1.91" style="fill: rgb(240, 240, 240); transform-origin: 380.07px 182.905px;" id="el2zl7e8sj0bs" class="animable"></rect><rect x="359.8" y="185.97" width="40.54" height="1.91" style="fill: rgb(240, 240, 240); transform-origin: 380.07px 186.925px;" id="el40rxvy6sznr" class="animable"></rect><rect x="359.8" y="189.99" width="40.54" height="1.91" style="fill: rgb(240, 240, 240); transform-origin: 380.07px 190.945px;" id="el59jew17erai" class="animable"></rect><rect x="359.8" y="194" width="47.08" height="1.91" style="fill: rgb(240, 240, 240); transform-origin: 383.34px 194.955px;" id="el8skojv04kyq" class="animable"></rect><rect x="359.8" y="198.02" width="47.08" height="1.91" style="fill: rgb(240, 240, 240); transform-origin: 383.34px 198.975px;" id="elrln006ghnt" class="animable"></rect><rect x="338.61" y="118.22" width="40.54" height="1.91" style="fill: rgb(240, 240, 240); transform-origin: 358.88px 119.175px;" id="elr911uea3qyg" class="animable"></rect><rect x="338.61" y="122.24" width="40.54" height="1.91" style="fill: rgb(240, 240, 240); transform-origin: 358.88px 123.195px;" id="elg21gtycli17" class="animable"></rect><rect x="338.61" y="126.25" width="40.54" height="1.91" style="fill: rgb(240, 240, 240); transform-origin: 358.88px 127.205px;" id="ell868uclnsd" class="animable"></rect><rect x="338.61" y="130.27" width="47.08" height="1.91" style="fill: rgb(240, 240, 240); transform-origin: 362.15px 131.225px;" id="elbnno61c9nmw" class="animable"></rect><rect x="338.61" y="134.29" width="47.08" height="1.91" style="fill: rgb(240, 240, 240); transform-origin: 362.15px 135.245px;" id="el2kj3f6ma356" class="animable"></rect><rect x="359.8" y="202.03" width="47.08" height="1.91" style="fill: rgb(240, 240, 240); transform-origin: 383.34px 202.985px;" id="el76vcae74092" class="animable"></rect><rect x="359.8" y="206.05" width="53.62" height="1.91" style="fill: rgb(240, 240, 240); transform-origin: 386.61px 207.005px;" id="elp901mljbmn" class="animable"></rect><rect x="359.8" y="210.07" width="53.62" height="1.91" style="fill: rgb(240, 240, 240); transform-origin: 386.61px 211.025px;" id="elkfkntmywr3" class="animable"></rect><rect x="359.8" y="214.08" width="47.08" height="1.91" style="fill: rgb(240, 240, 240); transform-origin: 383.34px 215.035px;" id="el6ocm4yim3fe" class="animable"></rect><rect x="359.8" y="218.1" width="53.62" height="1.91" style="fill: rgb(240, 240, 240); transform-origin: 386.61px 219.055px;" id="elio3wvwtybo8" class="animable"></rect><rect x="359.8" y="222.11" width="53.62" height="1.91" style="fill: rgb(240, 240, 240); transform-origin: 386.61px 223.065px;" id="eliuddtxk79kg" class="animable"></rect><rect x="359.8" y="226.13" width="40.54" height="1.91" style="fill: rgb(240, 240, 240); transform-origin: 380.07px 227.085px;" id="elo0edg8faxs" class="animable"></rect><rect x="359.8" y="230.15" width="40.54" height="1.91" style="fill: rgb(240, 240, 240); transform-origin: 380.07px 231.105px;" id="elwr0skdhy2o" class="animable"></rect><rect x="359.8" y="234.16" width="40.54" height="1.91" style="fill: rgb(240, 240, 240); transform-origin: 380.07px 235.115px;" id="elkemnsksc84r" class="animable"></rect><rect x="76.77" y="268.52" width="47.08" height="1.91" style="fill: rgb(240, 240, 240); transform-origin: 100.31px 269.475px;" id="el8bx5gdpsvq8" class="animable"></rect><rect x="76.77" y="272.54" width="53.62" height="1.91" style="fill: rgb(240, 240, 240); transform-origin: 103.58px 273.495px;" id="elr53ucjhsj1" class="animable"></rect><rect x="76.77" y="276.56" width="53.62" height="1.91" style="fill: rgb(240, 240, 240); transform-origin: 103.58px 277.515px;" id="elgoo6xg81qz6" class="animable"></rect><rect x="76.77" y="280.57" width="40.54" height="1.91" style="fill: rgb(240, 240, 240); transform-origin: 97.04px 281.525px;" id="elgqgyll6nza" class="animable"></rect><rect x="76.77" y="284.59" width="40.54" height="1.91" style="fill: rgb(240, 240, 240); transform-origin: 97.04px 285.545px;" id="el5j2xmt1qfxx" class="animable"></rect><rect x="76.77" y="288.6" width="40.54" height="1.91" style="fill: rgb(240, 240, 240); transform-origin: 97.04px 289.555px;" id="elsiy5fv66ji" class="animable"></rect><rect x="347.02" y="181.93" width="8.07" height="8.07" style="fill: rgb(240, 240, 240); transform-origin: 351.055px 185.965px;" id="eloilkrujtiwh" class="animable"></rect><rect x="173.71" y="308.92" width="40.54" height="1.91" style="fill: rgb(240, 240, 240); transform-origin: 193.98px 309.875px;" id="elpm63q4uxvyb" class="animable"></rect><rect x="173.71" y="312.93" width="40.54" height="1.91" style="fill: rgb(240, 240, 240); transform-origin: 193.98px 313.885px;" id="elzlja8i7j9ha" class="animable"></rect><rect x="173.71" y="316.95" width="40.54" height="1.91" style="fill: rgb(240, 240, 240); transform-origin: 193.98px 317.905px;" id="el502h3cy9lv6" class="animable"></rect><rect x="173.71" y="320.97" width="47.08" height="1.91" style="fill: rgb(240, 240, 240); transform-origin: 197.25px 321.925px;" id="el2ayb0l33ayb" class="animable"></rect><rect x="173.71" y="324.98" width="47.08" height="1.91" style="fill: rgb(240, 240, 240); transform-origin: 197.25px 325.935px;" id="el8hz8vc1wegx" class="animable"></rect><rect x="173.71" y="329" width="47.08" height="1.91" style="fill: rgb(240, 240, 240); transform-origin: 197.25px 329.955px;" id="el9eofqr33osu" class="animable"></rect><rect x="173.71" y="333.01" width="53.62" height="1.91" style="fill: rgb(240, 240, 240); transform-origin: 200.52px 333.965px;" id="el0dj6ofd6hav" class="animable"></rect><rect x="173.71" y="337.03" width="53.62" height="1.91" style="fill: rgb(240, 240, 240); transform-origin: 200.52px 337.985px;" id="el342fh9rgjse" class="animable"></rect><rect x="173.71" y="341.05" width="47.08" height="1.91" style="fill: rgb(240, 240, 240); transform-origin: 197.25px 342.005px;" id="eldzzqskn1y38" class="animable"></rect><rect x="173.71" y="345.06" width="53.62" height="1.91" style="fill: rgb(240, 240, 240); transform-origin: 200.52px 346.015px;" id="elhxdirswd0cd" class="animable"></rect><rect x="173.71" y="349.08" width="53.62" height="1.91" style="fill: rgb(240, 240, 240); transform-origin: 200.52px 350.035px;" id="el5ag8tze2x06" class="animable"></rect><rect x="173.71" y="353.09" width="40.54" height="1.91" style="fill: rgb(240, 240, 240); transform-origin: 193.98px 354.045px;" id="elys4ztlxbc6a" class="animable"></rect><rect x="173.71" y="357.11" width="40.54" height="1.91" style="fill: rgb(240, 240, 240); transform-origin: 193.98px 358.065px;" id="elslvwu19da8n" class="animable"></rect><path d="M66,272a3.46,3.46,0,1,0,3.46-3.46A3.45,3.45,0,0,0,66,272Z" style="fill: rgb(240, 240, 240); transform-origin: 69.46px 272px;" id="elg42nyzxv5uv" class="animable"></path><polygon points="164.03 309.63 160.22 316.23 167.84 316.23 164.03 309.63" style="fill: rgb(240, 240, 240); transform-origin: 164.03px 312.93px;" id="elntrifixiu3" class="animable"></polygon></g><g id="freepik--Shadow--inject-273" class="animable" style="transform-origin: 250px 416.24px;"><ellipse id="freepik--path--inject-273" cx="250" cy="416.24" rx="193.89" ry="11.32" style="fill: rgb(245, 245, 245); transform-origin: 250px 416.24px;" class="animable"></ellipse></g><g id="freepik--speech-bubble--inject-273" class="animable" style="transform-origin: 318.09px 155.415px;"><path d="M332.46,127.12H303.73a8.85,8.85,0,0,0-8.85,8.85v25a8.85,8.85,0,0,0,8.85,8.85h8.39l-7,13.89,13-13.89h14.39A8.85,8.85,0,0,0,341.3,161V136A8.84,8.84,0,0,0,332.46,127.12Z" style="fill: rgb(64, 123, 255); transform-origin: 318.09px 155.415px;" id="elp24ly5oew1a" class="animable"></path><g id="elv6wbbr4in9q"><path d="M332.46,127.12H303.73a8.85,8.85,0,0,0-8.85,8.85v25a8.85,8.85,0,0,0,8.85,8.85h8.39l-7,13.89,13-13.89h14.39A8.85,8.85,0,0,0,341.3,161V136A8.84,8.84,0,0,0,332.46,127.12Z" style="fill: rgb(255, 255, 255); opacity: 0.7; transform-origin: 318.09px 155.415px;" class="animable"></path></g><g id="ela08qlx7p6i6"><circle cx="318.09" cy="148.36" r="14.26" style="fill: rgb(64, 123, 255); transform-origin: 318.09px 148.36px; transform: rotate(-45deg);" class="animable"></circle></g><path d="M316.6,154.73a1.31,1.31,0,0,1-1-.46l-5.6-6.59a1.31,1.31,0,0,1,2-1.7l4.6,5.41,7.59-8.94a1.31,1.31,0,1,1,2,1.7l-8.58,10.12A1.33,1.33,0,0,1,316.6,154.73Z" style="fill: rgb(255, 255, 255); transform-origin: 318.095px 148.359px;" id="elkskaejecky" class="animable"></path></g><g id="freepik--robot-face--inject-273" class="animable" style="transform-origin: 249.69px 281.04px;"><path d="M383,405.89h5.09a2.51,2.51,0,0,1,2.51,2.51v6.32a0,0,0,0,1,0,0H380.46a0,0,0,0,1,0,0V408.4A2.51,2.51,0,0,1,383,405.89Z" style="fill: rgb(38, 50, 56); transform-origin: 385.53px 410.305px;" id="ely458n89696" class="animable"></path><path d="M383.38,409.27c0-.42-1.69-42.29-17.06-85.85-14.09-39.92-42.93-89.51-100.31-99l.66-4c26.23,4.35,48.92,17.05,67.43,37.73,14.74,16.46,26.86,38,36,64,15.55,44.13,17.24,86.53,17.25,87Z" style="fill: rgb(38, 50, 56); transform-origin: 326.68px 314.845px;" id="eliwftzyg99em" class="animable"></path><path d="M403,405.89h5.09a2.51,2.51,0,0,1,2.51,2.51v6.32a0,0,0,0,1,0,0H400.48a0,0,0,0,1,0,0V408.4A2.51,2.51,0,0,1,403,405.89Z" style="fill: rgb(38, 50, 56); transform-origin: 405.54px 410.305px;" id="els3qbez2gcj8" class="animable"></path><g id="el9ky2tm4fjyo"><path d="M383,405.89h5.09a2.51,2.51,0,0,1,2.51,2.51v6.32a0,0,0,0,1,0,0H380.46a0,0,0,0,1,0,0V408.4A2.51,2.51,0,0,1,383,405.89Z" style="fill: rgb(255, 255, 255); opacity: 0.2; transform-origin: 385.53px 410.305px;" class="animable"></path></g><g id="el70h6lbsbqz"><path d="M403,405.89h5.09a2.51,2.51,0,0,1,2.51,2.51v6.32a0,0,0,0,1,0,0H400.48a0,0,0,0,1,0,0V408.4A2.51,2.51,0,0,1,403,405.89Z" style="fill: rgb(255, 255, 255); opacity: 0.2; transform-origin: 405.54px 410.305px;" class="animable"></path></g><path d="M403.54,410.45A72.45,72.45,0,0,0,395,383.8C385,366,368.9,355.93,347.15,354l.35-4c28.9,2.55,43.7,18.79,51,32a75,75,0,0,1,9,28.17Z" style="fill: rgb(38, 50, 56); transform-origin: 377.325px 380.225px;" id="el875ip2but1" class="animable"></path><g id="elhz69heik7fn"><path d="M88.78,405.89H98.9a0,0,0,0,1,0,0v6.32a2.51,2.51,0,0,1-2.51,2.51H91.3a2.51,2.51,0,0,1-2.51-2.51v-6.32A0,0,0,0,1,88.78,405.89Z" style="fill: rgb(38, 50, 56); transform-origin: 93.84px 410.305px; transform: rotate(180deg);" class="animable"></path></g><path d="M92,409.2c0-.46.3-46.78,32.26-78.78,20.32-20.34,48.78-30.66,84.61-30.66v4c-46.84,0-80.06,17.67-98.73,52.53A125.45,125.45,0,0,0,96,409.2Z" style="fill: rgb(38, 50, 56); transform-origin: 150.435px 354.48px;" id="elw2h0g97xaxg" class="animable"></path><g id="elojrv2ululsf"><path d="M88.78,405.89H98.9a0,0,0,0,1,0,0v6.32a2.51,2.51,0,0,1-2.51,2.51H91.3a2.51,2.51,0,0,1-2.51-2.51v-6.32A0,0,0,0,1,88.78,405.89Z" style="fill: rgb(255, 255, 255); opacity: 0.2; transform-origin: 93.84px 410.305px; transform: rotate(180deg);" class="animable"></path></g><rect x="215.07" y="299.97" width="5.54" height="3.65" style="fill: rgb(38, 50, 56); transform-origin: 217.84px 301.795px;" id="elt8eh1354z5" class="animable"></rect><g id="el5wldjtchi4d"><rect x="215.07" y="299.97" width="5.54" height="3.65" style="fill: rgb(255, 255, 255); opacity: 0.7; transform-origin: 217.84px 301.795px;" class="animable"></rect></g><rect x="204.85" y="298.53" width="12.59" height="6.53" rx="1.37" style="fill: rgb(38, 50, 56); transform-origin: 211.145px 301.795px;" id="elol4vuxg0br8" class="animable"></rect><g id="elxlp8qjijbh9"><rect x="204.85" y="298.53" width="12.59" height="6.53" rx="1.37" style="fill: rgb(255, 255, 255); opacity: 0.2; transform-origin: 211.145px 301.795px;" class="animable"></rect></g><g id="el1l7uanevn92"><rect x="253.83" y="220.46" width="5.54" height="3.65" style="fill: rgb(38, 50, 56); transform-origin: 256.6px 222.285px; transform: rotate(180deg);" class="animable"></rect></g><g id="elm3vonkl1pat"><rect x="253.83" y="220.46" width="5.54" height="3.65" style="fill: rgb(255, 255, 255); opacity: 0.7; transform-origin: 256.6px 222.285px; transform: rotate(180deg);" class="animable"></rect></g><g id="eld8hvny69k8e"><rect x="256.99" y="219.02" width="12.59" height="6.53" rx="1.37" style="fill: rgb(38, 50, 56); transform-origin: 263.285px 222.285px; transform: rotate(180deg);" class="animable"></rect></g><g id="elfff60ewxi14"><rect x="256.99" y="219.02" width="12.59" height="6.53" rx="1.37" style="fill: rgb(255, 255, 255); opacity: 0.2; transform-origin: 263.285px 222.285px; transform: rotate(180deg);" class="animable"></rect></g><g id="eljx2uq1rzgf"><rect x="333.74" y="350.19" width="5.54" height="3.65" style="fill: rgb(38, 50, 56); transform-origin: 336.51px 352.015px; transform: rotate(180deg);" class="animable"></rect></g><g id="elerdfmoqqvtr"><rect x="333.74" y="350.19" width="5.54" height="3.65" style="fill: rgb(255, 255, 255); opacity: 0.7; transform-origin: 336.51px 352.015px; transform: rotate(180deg);" class="animable"></rect></g><g id="el5esvwf95h4o"><rect x="336.91" y="348.75" width="12.59" height="6.53" rx="1.37" style="fill: rgb(38, 50, 56); transform-origin: 343.205px 352.015px; transform: rotate(180deg);" class="animable"></rect></g><g id="elgdjztdhdp9c"><rect x="336.91" y="348.75" width="12.59" height="6.53" rx="1.37" style="fill: rgb(255, 255, 255); opacity: 0.2; transform-origin: 343.205px 352.015px; transform: rotate(180deg);" class="animable"></rect></g><path d="M161.78,323.1h0l36.71-9.18h0a49.78,49.78,0,0,1,62,48.26v53.64H123.91v-44.4A49.77,49.77,0,0,1,161.78,323.1Z" style="fill: rgb(64, 123, 255); transform-origin: 192.2px 364.108px;" id="el6a5cgsrja5i" class="animable"></path><g id="elum87giwbd8r"><path d="M161.78,323.1h0l36.71-9.18h0a49.78,49.78,0,0,1,62,48.26v53.64H123.91v-44.4A49.77,49.77,0,0,1,161.78,323.1Z" style="fill: rgb(255, 255, 255); opacity: 0.2; transform-origin: 192.2px 364.108px;" class="animable"></path></g><g id="el1jnyd8gvabz"><path d="M160.9,312.41h99.52a0,0,0,0,1,0,0v53.64a49.76,49.76,0,0,1-49.76,49.76h0a49.76,49.76,0,0,1-49.76-49.76V312.41A0,0,0,0,1,160.9,312.41Z" style="opacity: 0.2; transform-origin: 210.66px 364.11px; transform: rotate(180deg);" class="animable"></path></g><g id="el9a5djrlxfsi"><rect x="205.25" y="236.05" width="71.27" height="105.16" style="fill: rgb(38, 50, 56); transform-origin: 240.885px 288.63px; transform: rotate(-5.62deg);" class="animable"></rect></g><g id="eliw89h01g5o"><rect x="198.11" y="247.59" width="78.24" height="7.74" rx="2.48" style="fill: rgb(38, 50, 56); transform-origin: 237.23px 251.46px; transform: rotate(-5.62deg);" class="animable"></rect></g><g id="elb5vexqwiiwo"><rect x="198.11" y="247.59" width="78.24" height="7.74" rx="2.48" style="fill: rgb(255, 255, 255); opacity: 0.1; transform-origin: 237.23px 251.46px; transform: rotate(-5.62deg);" class="animable"></rect></g><g id="elw6sqhfcves"><rect x="199.49" y="261.62" width="78.24" height="7.74" rx="2.48" style="fill: rgb(38, 50, 56); transform-origin: 238.61px 265.49px; transform: rotate(-5.62deg);" class="animable"></rect></g><g id="el704zvn5igzw"><rect x="199.49" y="261.62" width="78.24" height="7.74" rx="2.48" style="fill: rgb(255, 255, 255); opacity: 0.1; transform-origin: 238.61px 265.49px; transform: rotate(-5.62deg);" class="animable"></rect></g><g id="el0h6jvs6ou25u"><rect x="200.87" y="275.65" width="78.24" height="7.74" rx="2.48" style="fill: rgb(38, 50, 56); transform-origin: 239.99px 279.52px; transform: rotate(-5.71059deg);" class="animable"></rect></g><g id="el7p7eehvs9ll"><rect x="200.87" y="275.65" width="78.24" height="7.74" rx="2.48" style="fill: rgb(255, 255, 255); opacity: 0.1; transform-origin: 239.99px 279.52px; transform: rotate(-5.71059deg);" class="animable"></rect></g><g id="elfo4vheu1pgk"><rect x="202.25" y="289.68" width="78.24" height="7.74" rx="2.48" style="fill: rgb(38, 50, 56); transform-origin: 241.37px 293.55px; transform: rotate(-5.62deg);" class="animable"></rect></g><g id="el39lejwaswt4"><rect x="202.25" y="289.68" width="78.24" height="7.74" rx="2.48" style="fill: rgb(255, 255, 255); opacity: 0.1; transform-origin: 241.37px 293.55px; transform: rotate(-5.62deg);" class="animable"></rect></g><g id="el7endffwanja"><rect x="203.63" y="303.7" width="78.24" height="7.74" rx="2.48" style="fill: rgb(38, 50, 56); transform-origin: 242.75px 307.57px; transform: rotate(-5.62deg);" class="animable"></rect></g><g id="ellu529nzc2sc"><rect x="203.63" y="303.7" width="78.24" height="7.74" rx="2.48" style="fill: rgb(255, 255, 255); opacity: 0.1; transform-origin: 242.75px 307.57px; transform: rotate(-5.62deg);" class="animable"></rect></g><g id="elxm5nkkw33w"><rect x="205.01" y="317.73" width="78.24" height="7.74" rx="2.48" style="fill: rgb(38, 50, 56); transform-origin: 244.13px 321.6px; transform: rotate(-5.62deg);" class="animable"></rect></g><g id="elhzhx9wltoyv"><rect x="205.01" y="317.73" width="78.24" height="7.74" rx="2.48" style="fill: rgb(255, 255, 255); opacity: 0.1; transform-origin: 244.13px 321.6px; transform: rotate(-5.62deg);" class="animable"></rect></g><path d="M207.57,337h85.23a0,0,0,0,1,0,0v22.52a0,0,0,0,1,0,0H200.58a0,0,0,0,1,0,0V344A7,7,0,0,1,207.57,337Z" style="fill: rgb(38, 50, 56); transform-origin: 246.69px 348.26px;" id="elhvye2pebss7" class="animable"></path><g id="elgdyrns7dca"><path d="M207.57,337h85.23a0,0,0,0,1,0,0v22.52a0,0,0,0,1,0,0H200.58a0,0,0,0,1,0,0V344A7,7,0,0,1,207.57,337Z" style="fill: rgb(255, 255, 255); opacity: 0.2; transform-origin: 246.69px 348.26px;" class="animable"></path></g><path d="M244.21,348.23v67.59H160.9V362.18a49.41,49.41,0,0,1,2-13.95Z" style="fill: rgb(64, 123, 255); transform-origin: 202.555px 382.025px;" id="elvvhi3ff2zcs" class="animable"></path><path d="M332.59,323.1h0l-36.71-9.18h0A49.78,49.78,0,0,0,234,362.18v53.64H370.47v-44.4A49.78,49.78,0,0,0,332.59,323.1Z" style="fill: rgb(64, 123, 255); transform-origin: 302.235px 364.124px;" id="elkj81qwivum" class="animable"></path><g id="elyil4mndhcp9"><path d="M332.59,323.1h0l-36.71-9.18h0A49.78,49.78,0,0,0,234,362.18v53.64H370.47v-44.4A49.78,49.78,0,0,0,332.59,323.1Z" style="fill: rgb(255, 255, 255); opacity: 0.2; transform-origin: 302.235px 364.124px;" class="animable"></path></g><g id="elvjnqj4bmf5"><path d="M320.7,321.66h0a49.76,49.76,0,0,1,49.76,49.76v44.39a0,0,0,0,1,0,0H270.94a0,0,0,0,1,0,0V371.42A49.76,49.76,0,0,1,320.7,321.66Z" style="opacity: 0.2; transform-origin: 320.7px 368.735px;" class="animable"></path></g><path d="M147.82,370.78h90.84a16.61,16.61,0,0,1,16.61,16.61v28.43a0,0,0,0,1,0,0H131.22a0,0,0,0,1,0,0V387.38A16.61,16.61,0,0,1,147.82,370.78Z" style="fill: rgb(38, 50, 56); transform-origin: 193.245px 393.3px;" id="elyiq7b0ez33" class="animable"></path><g id="elia1tenwjob"><path d="M147.82,370.78h90.84a16.61,16.61,0,0,1,16.61,16.61v28.43a0,0,0,0,1,0,0H131.22a0,0,0,0,1,0,0V387.38A16.61,16.61,0,0,1,147.82,370.78Z" style="fill: rgb(255, 255, 255); opacity: 0.2; transform-origin: 193.245px 393.3px;" class="animable"></path></g><g id="elv1nf8e55ock"><path d="M144.41,376.23h72.17a13.2,13.2,0,0,1,13.2,13.2v26.39a0,0,0,0,1,0,0H131.22a0,0,0,0,1,0,0V389.43A13.2,13.2,0,0,1,144.41,376.23Z" style="fill: rgb(255, 255, 255); opacity: 0.2; transform-origin: 180.5px 396.025px;" class="animable"></path></g><g id="elup1hkqpad6"><path d="M325.34,340.25h0c-15.39,0-27.87,13.67-27.87,30.53h0c0,16.86,12.48,30.52,27.87,30.52h0c15.4,0,27.88-13.66,27.88-30.52h0C353.22,353.92,340.74,340.25,325.34,340.25Z" style="opacity: 0.4; transform-origin: 325.345px 370.775px;" class="animable"></path></g><path d="M324,341.67h0c-14.67,0-26.57,13-26.57,29.11h0c0,16.07,11.9,29.1,26.57,29.1h0c14.68,0,26.57-13,26.57-29.1h0C350.61,354.7,338.72,341.67,324,341.67Z" style="fill: rgb(38, 50, 56); transform-origin: 324px 370.775px;" id="elc6c8zw3yn0l" class="animable"></path><path d="M322.38,357.2h6.48c6.36,0,11.51,6.08,11.51,13.58s-5.15,13.57-11.51,13.57h-6.48c-6.36,0-11.51-6.08-11.51-13.57S316,357.2,322.38,357.2Z" style="fill: rgb(64, 123, 255); transform-origin: 325.62px 370.775px;" id="el5tzanwal285" class="animable"></path><g id="elgftshzocdmg"><path d="M322.38,357.2h6.48c6.36,0,11.51,6.08,11.51,13.58s-5.15,13.57-11.51,13.57h-6.48c-6.36,0-11.51-6.08-11.51-13.57S316,357.2,322.38,357.2Z" style="opacity: 0.4; transform-origin: 325.62px 370.775px;" class="animable"></path></g><ellipse cx="328.86" cy="370.78" rx="11.52" ry="13.57" style="fill: rgb(64, 123, 255); transform-origin: 328.86px 370.78px;" id="elntiwuzaelv8" class="animable"></ellipse><g id="elj8ilc5kdja"><path d="M328.86,382.2c5,0,9.2-5.23,9.2-11.42s-4.22-11.43-9.2-11.43-9.2,5.24-9.2,11.43S323.87,382.2,328.86,382.2Z" style="opacity: 0.4; transform-origin: 328.86px 370.775px;" class="animable"></path></g><path d="M327.9,381c4.47,0,8.24-4.69,8.24-10.23s-3.77-10.24-8.24-10.24-8.24,4.69-8.24,10.24S323.43,381,327.9,381Z" style="fill: rgb(38, 50, 56); transform-origin: 327.9px 370.765px;" id="el2jmwl5nvbs9" class="animable"></path><g id="elv0naotv4wfr"><path d="M187.34,396.17c0,2.79-2,5-4.41,5s-4.4-2.25-4.4-5,2-5,4.4-5S187.34,393.39,187.34,396.17Z" style="opacity: 0.4; transform-origin: 182.935px 396.17px;" class="animable"></path></g><path d="M187.34,396.17a3.18,3.18,0,1,1-3.15-3.59A3.4,3.4,0,0,1,187.34,396.17Z" style="fill: rgb(64, 123, 255); transform-origin: 184.176px 395.76px;" id="eldaqfox0w7yk" class="animable"></path><g id="el4mshxj09v4s"><path d="M200.49,396.17c0,2.79-2,5-4.4,5s-4.4-2.25-4.4-5,2-5,4.4-5S200.49,393.39,200.49,396.17Z" style="opacity: 0.4; transform-origin: 196.09px 396.17px;" class="animable"></path></g><path d="M200.49,396.17a3.17,3.17,0,1,1-3.14-3.59A3.39,3.39,0,0,1,200.49,396.17Z" style="fill: rgb(64, 123, 255); transform-origin: 197.337px 395.75px;" id="el7b9dvge6m7v" class="animable"></path><g id="elv0vnxisrlqo"><path d="M213.65,396.17c0,2.79-2,5-4.4,5s-4.4-2.25-4.4-5,2-5,4.4-5S213.65,393.39,213.65,396.17Z" style="opacity: 0.4; transform-origin: 209.25px 396.17px;" class="animable"></path></g><path d="M213.65,396.17a3.17,3.17,0,1,1-3.14-3.59A3.4,3.4,0,0,1,213.65,396.17Z" style="fill: rgb(64, 123, 255); transform-origin: 210.497px 395.75px;" id="el8pv6cq8120e" class="animable"></path><g id="elvginolfn43a"><rect x="141.67" y="391.14" width="9.07" height="10.07" rx="2.3" style="opacity: 0.4; transform-origin: 146.205px 396.175px;" class="animable"></rect></g><rect x="143.69" y="392.15" width="7.05" height="8.05" rx="1.84" style="fill: rgb(64, 123, 255); transform-origin: 147.215px 396.175px;" id="el21421zvofpw" class="animable"></rect><path d="M198.37,226.57h60.29a0,0,0,0,1,0,0V272a8.63,8.63,0,0,1-8.63,8.63H198.37a0,0,0,0,1,0,0V226.57A0,0,0,0,1,198.37,226.57Z" style="fill: rgb(38, 50, 56); transform-origin: 228.515px 253.6px;" id="elfx8amsbvtde" class="animable"></path><g id="elk2gmtyr420i"><path d="M198.37,226.57h60.29a0,0,0,0,1,0,0V272a8.63,8.63,0,0,1-8.63,8.63H198.37a0,0,0,0,1,0,0V226.57A0,0,0,0,1,198.37,226.57Z" style="fill: rgb(255, 255, 255); opacity: 0.2; transform-origin: 228.515px 253.6px;" class="animable"></path></g><path d="M221.81,268.8h0a5.39,5.39,0,0,1-5.39-5.4V240.74a5.39,5.39,0,0,1,5.39-5.4h0a5.4,5.4,0,0,1,5.4,5.4V263.4A5.4,5.4,0,0,1,221.81,268.8Z" style="fill: rgb(38, 50, 56); transform-origin: 221.815px 252.07px;" id="eltz1sieat8gj" class="animable"></path><path d="M282.7,179.27V224a13.43,13.43,0,0,1-13.43,13.43H235.05c-5.18,0-18.63,4.2-18.63,9.38v18H157.93V190.63a39.27,39.27,0,0,1,39.28-39.28h57.57A27.92,27.92,0,0,1,282.7,179.27Z" style="fill: rgb(64, 123, 255); transform-origin: 220.315px 208.08px;" id="elfm9wj8pte5d" class="animable"></path><g id="el5p9rrkc7k1j"><path d="M282.7,179.27V224a13.43,13.43,0,0,1-13.43,13.43H235.05c-5.18,0-18.63,4.2-18.63,9.38v18H157.93V190.63a39.27,39.27,0,0,1,39.28-39.28h57.57A27.92,27.92,0,0,1,282.7,179.27Z" style="fill: rgb(255, 255, 255); opacity: 0.2; transform-origin: 220.315px 208.08px;" class="animable"></path></g><path d="M203.88,198.18h-6.47c-6.36,0-11.52,6.08-11.52,13.58s5.16,13.57,11.52,13.57h6.47c6.36,0,11.52-6.08,11.52-13.57S210.24,198.18,203.88,198.18Z" style="fill: rgb(64, 123, 255); transform-origin: 200.645px 211.755px;" id="elcc9vf5pdr6s" class="animable"></path><g id="eluguumz20gyj"><ellipse cx="197.41" cy="211.76" rx="11.52" ry="13.57" style="fill: rgb(255, 255, 255); opacity: 0.3; transform-origin: 197.41px 211.76px;" class="animable"></ellipse></g><g id="elu79fjv4xzu"><path d="M197.41,223.18c-5,0-9.2-5.23-9.2-11.42s4.21-11.43,9.2-11.43,9.2,5.23,9.2,11.43S202.4,223.18,197.41,223.18Z" style="opacity: 0.4; transform-origin: 197.41px 211.755px;" class="animable"></path></g><path d="M198.37,222c-4.47,0-8.25-4.69-8.25-10.23s3.78-10.24,8.25-10.24,8.24,4.69,8.24,10.24S202.84,222,198.37,222Z" style="fill: rgb(38, 50, 56); transform-origin: 198.365px 211.765px;" id="elq3l55y2qqe" class="animable"></path><g id="elfk47xvbivop"><path d="M195,210.81c-1.3,0-2.39-1.36-2.39-3s1.09-3,2.39-3,2.39,1.36,2.39,3S196.31,210.81,195,210.81Z" style="fill: rgb(255, 255, 255); opacity: 0.5; transform-origin: 195px 207.81px;" class="animable"></path></g><path d="M167.82,198.18h-6.47c-6.36,0-11.52,6.08-11.52,13.58s5.16,13.57,11.52,13.57h6.47c6.36,0,11.51-6.08,11.51-13.57S174.18,198.18,167.82,198.18Z" style="fill: rgb(64, 123, 255); transform-origin: 164.58px 211.755px;" id="el9mu7asiak7l" class="animable"></path><g id="elwg7jkce6p2"><ellipse cx="161.35" cy="211.76" rx="11.52" ry="13.57" style="fill: rgb(255, 255, 255); opacity: 0.3; transform-origin: 161.35px 211.76px;" class="animable"></ellipse></g><g id="elwbe6me1bhif"><path d="M161.35,223.18c-5,0-9.21-5.23-9.21-11.42s4.22-11.43,9.21-11.43,9.2,5.23,9.2,11.43S166.33,223.18,161.35,223.18Z" style="opacity: 0.4; transform-origin: 161.345px 211.755px;" class="animable"></path></g><path d="M162.3,222c-4.47,0-8.24-4.69-8.24-10.23s3.77-10.24,8.24-10.24,8.25,4.69,8.25,10.24S166.77,222,162.3,222Z" style="fill: rgb(38, 50, 56); transform-origin: 162.305px 211.765px;" id="el6v9y7fui0u5" class="animable"></path><g id="elsnl5kvk3j6s"><path d="M159,210.81c-1.29,0-2.39-1.36-2.39-3s1.1-3,2.39-3a3,3,0,0,1,0,5.94Z" style="fill: rgb(255, 255, 255); opacity: 0.5; transform-origin: 159.093px 207.81px;" class="animable"></path></g><polygon points="170.9 251.09 184.25 251.09 184.25 221.99 177.18 221.99 163.84 251.09 170.9 251.09" style="fill: rgb(38, 50, 56); transform-origin: 174.045px 236.54px;" id="el8ccpdugmqz2" class="animable"></polygon><g id="elh48dgzjl89q"><polygon points="170.9 251.09 163.84 251.09 177.18 221.99 184.25 221.99 170.9 251.09" style="fill: rgb(255, 255, 255); opacity: 0.2; transform-origin: 174.045px 236.54px;" class="animable"></polygon></g><path d="M258.66,270.54v1.57A29.66,29.66,0,0,1,229,301.76H186.66A29.66,29.66,0,0,1,157,272.11V259.54h58.49v9.38a9.39,9.39,0,0,0,9.38,9.38h26A7.77,7.77,0,0,0,258.66,270.54Z" style="fill: rgb(38, 50, 56); transform-origin: 207.83px 280.65px;" id="el6rqfk9jmdmi" class="animable"></path><g id="elxfeg69rotp"><path d="M258.66,270.54v1.57A29.66,29.66,0,0,1,229,301.76H186.66A29.66,29.66,0,0,1,157,272.11V259.54h58.49v9.38a9.39,9.39,0,0,0,9.38,9.38h26A7.77,7.77,0,0,0,258.66,270.54Z" style="fill: rgb(255, 255, 255); opacity: 0.2; transform-origin: 207.83px 280.65px;" class="animable"></path></g><g id="elmrw5cw3986p"><path d="M168.25,272.27h0a2.78,2.78,0,0,0-2.75,3.09A29.67,29.67,0,0,0,195,301.76h5.54A29.66,29.66,0,0,1,171,274.83,2.78,2.78,0,0,0,168.25,272.27Z" style="opacity: 0.2; transform-origin: 183.011px 287.015px;" class="animable"></path></g><g id="el8x5lby4hr9h"><path d="M182.12,272.27h0a2.78,2.78,0,0,0-2.75,3.09,29.67,29.67,0,0,0,29.49,26.4h5.54a29.67,29.67,0,0,1-29.53-26.93A2.78,2.78,0,0,0,182.12,272.27Z" style="opacity: 0.2; transform-origin: 196.876px 287.015px;" class="animable"></path></g><g id="elabreze49sl9"><path d="M196,272.27h0a2.78,2.78,0,0,0-2.75,3.09,29.67,29.67,0,0,0,29.49,26.4h5.54a29.67,29.67,0,0,1-29.53-26.93A2.78,2.78,0,0,0,196,272.27Z" style="opacity: 0.2; transform-origin: 210.756px 287.015px;" class="animable"></path></g><path d="M215.88,264.77H157.24a3.44,3.44,0,0,1-3.45-3.45h0a3.45,3.45,0,0,1,3.45-3.46h58.64a3.46,3.46,0,0,1,3.46,3.46h0A3.45,3.45,0,0,1,215.88,264.77Z" style="fill: rgb(38, 50, 56); transform-origin: 186.565px 261.315px;" id="el7ygrzw04jb6" class="animable"></path><g id="elfze69pegvs"><path d="M219.34,261.32a3.48,3.48,0,0,1-3.46,3.46H157.24a3.46,3.46,0,0,1-2.44-5.91,3.4,3.4,0,0,1,2.44-1h58.64A3.46,3.46,0,0,1,219.34,261.32Z" style="fill: rgb(255, 255, 255); opacity: 0.4; transform-origin: 186.562px 261.325px;" class="animable"></path></g><g id="eldxg5exdy78l"><path d="M219.34,261.32a3.48,3.48,0,0,1-3.46,3.46h-.38a3.46,3.46,0,1,1,0-6.92h.38A3.46,3.46,0,0,1,219.34,261.32Z" style="opacity: 0.2; transform-origin: 215.69px 261.32px;" class="animable"></path></g><path d="M275,210.6v16.67a4.54,4.54,0,0,1-4.55,4.54H253.8a4.54,4.54,0,0,1-4.54-4.54V210.6a4.54,4.54,0,0,1,4.54-4.53h16.66A4.54,4.54,0,0,1,275,210.6Z" style="fill: rgb(64, 123, 255); transform-origin: 262.13px 218.94px;" id="else4o1p8tad" class="animable"></path><g id="el3f9k4bxxtc2"><path d="M275,210.6v16.67a4.54,4.54,0,0,1-4.55,4.54H259.35a4.54,4.54,0,0,1-4.54-4.54V210.6a4.53,4.53,0,0,1,4.54-4.53h11.11A4.54,4.54,0,0,1,275,210.6Z" style="opacity: 0.2; transform-origin: 264.905px 218.94px;" class="animable"></path></g><path d="M271.7,213.05H260.09a1.14,1.14,0,0,1-1.15-1.14h0a1.14,1.14,0,0,1,1.15-1.15H271.7a1.14,1.14,0,0,1,1.14,1.15h0A1.14,1.14,0,0,1,271.7,213.05Z" style="fill: rgb(38, 50, 56); transform-origin: 265.89px 211.905px;" id="elc22relcy4e" class="animable"></path><path d="M271.7,217.74H260.09a1.14,1.14,0,0,1-1.15-1.15h0a1.14,1.14,0,0,1,1.15-1.14H271.7a1.14,1.14,0,0,1,1.14,1.14h0A1.14,1.14,0,0,1,271.7,217.74Z" style="fill: rgb(38, 50, 56); transform-origin: 265.89px 216.595px;" id="eljk4rt0kbvy" class="animable"></path><path d="M271.7,222.43H260.09a1.15,1.15,0,0,1-1.15-1.15h0a1.14,1.14,0,0,1,1.15-1.14H271.7a1.14,1.14,0,0,1,1.14,1.14h0A1.15,1.15,0,0,1,271.7,222.43Z" style="fill: rgb(38, 50, 56); transform-origin: 265.89px 221.285px;" id="elbka2sq8qq8r" class="animable"></path><path d="M271.7,227.12H260.09a1.15,1.15,0,0,1-1.15-1.15h0a1.14,1.14,0,0,1,1.15-1.14H271.7a1.14,1.14,0,0,1,1.14,1.14h0A1.15,1.15,0,0,1,271.7,227.12Z" style="fill: rgb(38, 50, 56); transform-origin: 265.89px 225.975px;" id="elktdqupgwtwk" class="animable"></path><path d="M286.4,185.49V190a3.7,3.7,0,0,1-3.7,3.7h0V182.92a28.83,28.83,0,0,0-28.83-28.83H231A29.86,29.86,0,0,0,201.14,184h0a7.93,7.93,0,0,1-7.93,7.93h-28a6.4,6.4,0,0,1-6.39-6.4h0a39.28,39.28,0,0,1,39.28-39.27h49A39.29,39.29,0,0,1,286.4,185.49Z" style="fill: rgb(64, 123, 255); transform-origin: 222.61px 169.98px;" id="el0mce0gpmtqge" class="animable"></path><g id="elj7kf3pdwnbi"><path d="M270.94,184.28c2.49,0,4.6,2.62,4.6,5.71s-2.11,5.72-4.6,5.72-4.6-2.62-4.6-5.72S268.45,184.28,270.94,184.28Z" style="opacity: 0.4; transform-origin: 270.94px 189.995px;" class="animable"></path></g><path d="M270.46,184.88c2.23,0,4.12,2.34,4.12,5.11s-1.89,5.12-4.12,5.12-4.12-2.34-4.12-5.12S268.23,184.88,270.46,184.88Z" style="fill: rgb(38, 50, 56); transform-origin: 270.46px 189.995px;" id="el1vriydaee32" class="animable"></path><g id="el9tpd64kc1j"><path d="M258.07,184.28c2.49,0,4.6,2.62,4.6,5.71s-2.11,5.72-4.6,5.72-4.6-2.62-4.6-5.72S255.57,184.28,258.07,184.28Z" style="opacity: 0.4; transform-origin: 258.07px 189.995px;" class="animable"></path></g><path d="M257.59,184.88c2.23,0,4.12,2.34,4.12,5.11s-1.89,5.12-4.12,5.12-4.12-2.34-4.12-5.12S255.35,184.88,257.59,184.88Z" style="fill: rgb(38, 50, 56); transform-origin: 257.59px 189.995px;" id="elfcp44fm5vn" class="animable"></path><g id="ell1ylvqea4ao"><path d="M245.19,184.28c2.5,0,4.6,2.62,4.6,5.71s-2.1,5.72-4.6,5.72-4.6-2.62-4.6-5.72S242.7,184.28,245.19,184.28Z" style="opacity: 0.4; transform-origin: 245.19px 189.995px;" class="animable"></path></g><path d="M244.71,184.88c2.24,0,4.13,2.34,4.13,5.11s-1.89,5.12-4.13,5.12-4.12-2.34-4.12-5.12S242.48,184.88,244.71,184.88Z" style="fill: rgb(38, 50, 56); transform-origin: 244.715px 189.995px;" id="elkm6nyexkz78" class="animable"></path><g id="el6e8wlbhv2l3"><path d="M264.5,169.49c2.5,0,4.6,2.61,4.6,5.71s-2.1,5.71-4.6,5.71-4.6-2.62-4.6-5.71S262,169.49,264.5,169.49Z" style="opacity: 0.4; transform-origin: 264.5px 175.2px;" class="animable"></path></g><path d="M264,170.08c2.24,0,4.13,2.35,4.13,5.12s-1.89,5.12-4.13,5.12-4.12-2.35-4.12-5.12S261.79,170.08,264,170.08Z" style="fill: rgb(38, 50, 56); transform-origin: 264.005px 175.2px;" id="elj2q7njjrrf" class="animable"></path><g id="elp0gtgjki1rl"><path d="M251.63,169.49c2.49,0,4.6,2.61,4.6,5.71s-2.11,5.71-4.6,5.71-4.6-2.62-4.6-5.71S249.14,169.49,251.63,169.49Z" style="opacity: 0.4; transform-origin: 251.63px 175.2px;" class="animable"></path></g><path d="M251.15,170.08c2.23,0,4.12,2.35,4.12,5.12s-1.89,5.12-4.12,5.12S247,178,247,175.2,248.92,170.08,251.15,170.08Z" style="fill: rgb(38, 50, 56); transform-origin: 251.135px 175.2px;" id="elngmy5639psn" class="animable"></path></g><defs>     <filter id="active" height="200%">         <feMorphology in="SourceAlpha" result="DILATED" operator="dilate" radius="2"></feMorphology>                <feFlood flood-color="#32DFEC" flood-opacity="1" result="PINK"></feFlood>        <feComposite in="PINK" in2="DILATED" operator="in" result="OUTLINE"></feComposite>        <feMerge>            <feMergeNode in="OUTLINE"></feMergeNode>            <feMergeNode in="SourceGraphic"></feMergeNode>        </feMerge>    </filter>    <filter id="hover" height="200%">        <feMorphology in="SourceAlpha" result="DILATED" operator="dilate" radius="2"></feMorphology>                <feFlood flood-color="#ff0000" flood-opacity="0.5" result="PINK"></feFlood>        <feComposite in="PINK" in2="DILATED" operator="in" result="OUTLINE"></feComposite>        <feMerge>            <feMergeNode in="OUTLINE"></feMergeNode>            <feMergeNode in="SourceGraphic"></feMergeNode>        </feMerge>            <feColorMatrix type="matrix" values="0   0   0   0   0                0   1   0   0   0                0   0   0   0   0                0   0   0   1   0 "></feColorMatrix>    </filter></defs></svg>