<svg class="animated" id="freepik_stories-counting-stars" xmlns="http://www.w3.org/2000/svg" viewBox="0 0 500 372.61" version="1.1" xmlns:xlink="http://www.w3.org/1999/xlink" xmlns:svgjs="http://svgjs.com/svgjs"><style>svg#freepik_stories-counting-stars:not(.animated) .animable {opacity: 0;}svg#freepik_stories-counting-stars.animated #freepik--background-complete--inject-2 {animation: 1.5s Infinite  linear wind;animation-delay: 0s;}svg#freepik_stories-counting-stars.animated #freepik--Shadow--inject-2 {animation: 1.5s Infinite  linear shake;animation-delay: 0s;}svg#freepik_stories-counting-stars.animated #freepik--Window--inject-2 {animation: 1.5s Infinite  linear floating;animation-delay: 0s;}svg#freepik_stories-counting-stars.animated #freepik--Character--inject-2 {animation: 1.5s Infinite  linear wind;animation-delay: 0s;}svg#freepik_stories-counting-stars.animated #freepik--Cat--inject-2 {animation: 1.5s Infinite  linear wind;animation-delay: 0s;}            @keyframes wind {                0% {                    transform: rotate( 0deg );                }                25% {                    transform: rotate( 1deg );                }                75% {                    transform: rotate( -1deg );                }            }                    @keyframes shake {                10%, 90% {                    transform: translate3d(-1px, 0, 0);                  }                  20%, 80% {                    transform: translate3d(2px, 0, 0);                  }                  30%, 50%, 70% {                    transform: translate3d(-4px, 0, 0);                  }                  40%, 60% {                    transform: translate3d(4px, 0, 0);                  }            }                    @keyframes floating {                0% {                    opacity: 1;                    transform: translateY(0px);                }                50% {                    transform: translateY(-10px);                }                100% {                    opacity: 1;                    transform: translateY(0px);                }            }        </style><g id="freepik--background-complete--inject-2" class="animable animator-active" style="transform-origin: 250px 171.92px;"><rect y="327.45" width="500" height="0.25" style="fill: rgb(235, 235, 235); transform-origin: 250px 327.575px;" id="el425izmt57he" class="animable"></rect><rect x="416.78" y="343.54" width="33.12" height="0.25" style="fill: rgb(235, 235, 235); transform-origin: 433.34px 343.665px;" id="elv3sun0yz66" class="animable"></rect><rect x="239.64" y="340.49" width="30.22" height="0.25" style="fill: rgb(235, 235, 235); transform-origin: 254.75px 340.615px;" id="ele8qvfaetzd" class="animable"></rect><rect x="345.89" y="334.26" width="69.89" height="0.25" style="fill: rgb(235, 235, 235); transform-origin: 380.835px 334.385px;" id="ell96i4fsem4" class="animable"></rect><rect x="52.46" y="335.94" width="167.14" height="0.25" style="fill: rgb(235, 235, 235); transform-origin: 136.03px 336.065px;" id="elqaon1vpjsj" class="animable"></rect><rect x="228.5" y="335.94" width="6.33" height="0.25" style="fill: rgb(235, 235, 235); transform-origin: 231.665px 336.065px;" id="el17vacqq8wra" class="animable"></rect><path d="M237,282.85H43.91a5.71,5.71,0,0,1-5.7-5.71V5.71A5.71,5.71,0,0,1,43.91.05H237a5.71,5.71,0,0,1,5.71,5.71h0V277.14A5.71,5.71,0,0,1,237,282.85ZM43.91.25a5.46,5.46,0,0,0-5.45,5.46V277.14a5.46,5.46,0,0,0,5.45,5.46H237a5.48,5.48,0,0,0,5.46-5.46V5.71A5.48,5.48,0,0,0,237,.25Z" style="fill: rgb(235, 235, 235); transform-origin: 140.46px 141.45px;" id="elngnp9z9noph" class="animable"></path><path d="M453.31,282.85H260.21a5.73,5.73,0,0,1-5.71-5.71V5.71A5.72,5.72,0,0,1,260.21.05h193.1A5.71,5.71,0,0,1,459,5.71V277.14A5.7,5.7,0,0,1,453.31,282.85ZM260.21.25a5.48,5.48,0,0,0-5.46,5.46V277.14a5.48,5.48,0,0,0,5.46,5.46h193.1a5.48,5.48,0,0,0,5.46-5.46V5.71A5.48,5.48,0,0,0,453.31.25Z" style="fill: rgb(235, 235, 235); transform-origin: 356.75px 141.45px;" id="el3wehrt5c93f" class="animable"></path><rect x="422.53" y="85.56" width="47.86" height="68.61" style="fill: rgb(240, 240, 240); transform-origin: 446.46px 119.865px;" id="elsunqq4o2w1q" class="animable"></rect><rect x="420.87" y="85.56" width="1.66" height="68.61" style="fill: rgb(230, 230, 230); transform-origin: 421.7px 119.865px;" id="elh21uba6ki3i" class="animable"></rect><rect x="427.33" y="90.37" width="38.25" height="59.01" style="fill: rgb(250, 250, 250); transform-origin: 446.455px 119.875px;" id="eleelw882h197" class="animable"></rect><path d="M48.74,323.73H45.15V105.93a1.78,1.78,0,0,1,1.75-1.8h0a1.79,1.79,0,0,1,1.79,1.79h0V323.73Z" style="fill: rgb(245, 245, 245); transform-origin: 46.9449px 213.93px;" id="elatq5jfh02d" class="animable"></path><path d="M58,327.45H35.9v-2.86a4.54,4.54,0,0,1,4.54-4.54h13A4.54,4.54,0,0,1,58,324.59h0v2.86Z" style="fill: rgb(240, 240, 240); transform-origin: 46.95px 323.75px;" id="el8accwqxtrlm" class="animable"></path><path d="M27.59,167.7H66.32L62.76,109A15.83,15.83,0,0,0,47,94.1h0A15.84,15.84,0,0,0,31.19,109Z" style="fill: rgb(224, 224, 224); transform-origin: 46.955px 130.9px;" id="eljupfi3ry95" class="animable"></path><rect x="413.82" y="167.52" width="32.86" height="38.61" style="fill: rgb(240, 240, 240); transform-origin: 430.25px 186.825px;" id="el0j5xydfpvz5q" class="animable"></rect><rect x="412.16" y="167.52" width="1.66" height="38.61" style="fill: rgb(230, 230, 230); transform-origin: 412.99px 186.825px;" id="eld3yugczkmps" class="animable"></rect><rect x="418.62" y="172.32" width="23.25" height="29.01" style="fill: rgb(250, 250, 250); transform-origin: 430.245px 186.825px;" id="elw96tw28yz8" class="animable"></rect><g id="el7twc65p1mrq"><circle cx="114.33" cy="301.7" r="25.74" style="fill: rgb(240, 240, 240); transform-origin: 114.33px 301.7px; transform: rotate(-85.93deg);" class="animable"></circle></g><circle cx="411.16" cy="290.3" r="37.17" style="fill: rgb(240, 240, 240); transform-origin: 411.16px 290.3px;" id="elgxi82day8kv" class="animable"></circle><circle cx="411.16" cy="290.3" r="29.83" style="fill: rgb(245, 245, 245); transform-origin: 411.16px 290.3px;" id="elc1m4nb8jbc6" class="animable"></circle></g><g id="freepik--Shadow--inject-2" class="animable" style="transform-origin: 250px 361.29px;"><ellipse id="freepik--path--inject-2" cx="250" cy="361.29" rx="193.89" ry="11.32" style="fill: rgb(245, 245, 245); transform-origin: 250px 361.29px;" class="animable"></ellipse></g><g id="freepik--Window--inject-2" class="animable" style="transform-origin: 243.32px 140.99px;"><rect x="86.32" y="24.05" width="314" height="212.89" style="fill: rgb(38, 50, 56); transform-origin: 243.32px 130.495px;" id="eleo4d82ns96u" class="animable"></rect><g id="elctwvgzlb5yk"><path d="M400.32,206.86v30.08h-314V206.86c45.57-4.81,119.38,28.22,176,15S371.41,206.86,400.32,206.86Z" style="fill: rgb(255, 255, 255); opacity: 0.1; isolation: isolate; transform-origin: 243.32px 221.659px;" class="animable"></path></g><path d="M195.88,87.26a6.78,6.78,0,0,0-4.52,4.52,6.74,6.74,0,0,0-4.51-4.52,6.75,6.75,0,0,0,4.51-4.51A6.74,6.74,0,0,0,195.88,87.26Z" style="fill: rgb(255, 255, 255); transform-origin: 191.365px 87.265px;" id="ele4q8hoqubbp" class="animable"></path><circle cx="257.7" cy="103.48" r="2.69" style="fill: rgb(255, 255, 255); transform-origin: 257.7px 103.48px;" id="elx5xacy4g3vr" class="animable"></circle><circle cx="337.27" cy="76.28" r="3.62" style="fill: rgb(255, 255, 255); transform-origin: 337.27px 76.28px;" id="elc4qormmwbyq" class="animable"></circle><path d="M184.29,148.38a5.39,5.39,0,0,0-3.62,3.62,5.43,5.43,0,0,0-3.62-3.62,5.43,5.43,0,0,0,3.62-3.62A5.39,5.39,0,0,0,184.29,148.38Z" style="fill: rgb(255, 255, 255); transform-origin: 180.67px 148.38px;" id="elxdn1qg9m8qm" class="animable"></path><g id="el1w6zmggr8gj"><path d="M285.55,160.56a3.41,3.41,0,0,0-2.26,2.26,3.4,3.4,0,0,0-2.25-2.26,3.34,3.34,0,0,0,2.25-2.25A3.4,3.4,0,0,0,285.55,160.56Z" style="fill: rgb(255, 255, 255); opacity: 0.6; isolation: isolate; transform-origin: 283.295px 160.565px;" class="animable"></path></g><g id="elnpnh9isc0b9"><path d="M154.65,67.16a3.4,3.4,0,0,0-2.25,2.26,3.41,3.41,0,0,0-2.26-2.26,3.41,3.41,0,0,0,2.26-2.26A3.38,3.38,0,0,0,154.65,67.16Z" style="fill: rgb(255, 255, 255); opacity: 0.6; isolation: isolate; transform-origin: 152.395px 67.16px;" class="animable"></path></g><g id="elltqxlkwf0va"><path d="M209.26,190.16a3.37,3.37,0,0,0-2.26,2.26,3.37,3.37,0,0,0-2.26-2.26A3.41,3.41,0,0,0,207,187.9,3.41,3.41,0,0,0,209.26,190.16Z" style="fill: rgb(255, 255, 255); opacity: 0.8; isolation: isolate; transform-origin: 207px 190.16px;" class="animable"></path></g><g id="elhy6ieeu6mxf"><path d="M379.54,180.27a2.38,2.38,0,0,0-1.61,1.62,2.4,2.4,0,0,0-1.62-1.62,2.42,2.42,0,0,0,1.62-1.61A2.41,2.41,0,0,0,379.54,180.27Z" style="fill: rgb(255, 255, 255); opacity: 0.4; isolation: isolate; transform-origin: 377.925px 180.275px;" class="animable"></path></g><g id="elo7tc0h5ipd"><path d="M240.11,144.05a2.46,2.46,0,0,0-1.61,1.62,2.43,2.43,0,0,0-1.62-1.62,2.38,2.38,0,0,0,1.62-1.61A2.41,2.41,0,0,0,240.11,144.05Z" style="fill: rgb(255, 255, 255); opacity: 0.4; isolation: isolate; transform-origin: 238.495px 144.055px;" class="animable"></path></g><g id="el6f9eu8pwkz"><circle cx="383.44" cy="99.18" r="1.61" style="fill: rgb(255, 255, 255); opacity: 0.4; isolation: isolate; transform-origin: 383.44px 99.18px;" class="animable"></circle></g><g id="el9rm7isvqhf5"><circle cx="228.33" cy="81.51" r="1.61" style="fill: rgb(255, 255, 255); opacity: 0.4; isolation: isolate; transform-origin: 228.33px 81.51px;" class="animable"></circle></g><g id="el8fspxp8oex5"><path d="M144.12,168a2.38,2.38,0,0,0-1.62,1.61,2.41,2.41,0,0,0-1.61-1.61,2.38,2.38,0,0,0,1.61-1.62A2.4,2.4,0,0,0,144.12,168Z" style="fill: rgb(255, 255, 255); opacity: 0.4; isolation: isolate; transform-origin: 142.505px 167.995px;" class="animable"></path></g><g id="eluemed6t7h3a"><path d="M293.9,85.65a2.46,2.46,0,0,0-1.62,1.61,2.41,2.41,0,0,0-1.61-1.61A2.41,2.41,0,0,0,292.28,84,2.46,2.46,0,0,0,293.9,85.65Z" style="fill: rgb(255, 255, 255); opacity: 0.4; isolation: isolate; transform-origin: 292.285px 85.63px;" class="animable"></path></g><g id="elrrp2wsonuqf"><rect x="86.32" y="24.05" width="314" height="27" style="fill: rgb(64, 123, 255); opacity: 0.2; isolation: isolate; transform-origin: 243.32px 37.55px;" class="animable"></rect></g><rect x="86.32" y="48.55" width="314" height="5" style="fill: rgb(64, 123, 255); transform-origin: 243.32px 51.05px;" id="elbfb52yxd0ho" class="animable"></rect><rect x="405.32" y="70.71" width="1" height="7.5" style="fill: rgb(64, 123, 255); transform-origin: 405.82px 74.46px;" id="elyipms7bgq3" class="animable"></rect><rect x="405.32" y="38.88" width="1" height="24" style="fill: rgb(64, 123, 255); transform-origin: 405.82px 50.88px;" id="elvsdu17yn5f" class="animable"></rect><path d="M402.82,239.44h-319V21.55h319Zm-314-5h309V26.55h-309Z" style="fill: rgb(64, 123, 255); transform-origin: 243.32px 130.495px;" id="elrhogt3sk7s" class="animable"></path><path d="M420.32,17.77h-354a1.5,1.5,0,0,1,0-3h354a1.5,1.5,0,0,1,0,3Z" style="fill: rgb(64, 123, 255); transform-origin: 243.32px 16.27px;" id="el90tuvzd7wel" class="animable"></path><path d="M156.32,109.55h-.26a8.31,8.31,0,0,0-6.18,13.87,8.31,8.31,0,1,1,6.44-13.86Z" style="fill: rgb(255, 255, 255); transform-origin: 149.074px 115.112px;" id="elaqzt8r287z" class="animable"></path><rect x="74.62" y="10.27" width="13.04" height="251.11" style="fill: rgb(64, 123, 255); transform-origin: 81.14px 135.825px;" id="elxotqstggxyq" class="animable"></rect><g id="eluf4phakorq"><rect x="74.62" y="10.27" width="13.04" height="251.11" style="fill: rgb(255, 255, 255); opacity: 0.5; isolation: isolate; transform-origin: 81.14px 135.825px;" class="animable"></rect></g><rect x="96.04" y="10.27" width="13.04" height="251.11" style="fill: rgb(64, 123, 255); transform-origin: 102.56px 135.825px;" id="el29v7p5d0os1" class="animable"></rect><g id="elvn3bh4mnqi8"><rect x="96.04" y="10.27" width="13.04" height="251.11" style="fill: rgb(255, 255, 255); opacity: 0.5; isolation: isolate; transform-origin: 102.56px 135.825px;" class="animable"></rect></g><rect x="111.69" y="10.27" width="13.04" height="251.11" style="fill: rgb(64, 123, 255); transform-origin: 118.21px 135.825px;" id="elmdb58a37ze" class="animable"></rect><g id="elvvsuhv0uue"><rect x="111.69" y="10.27" width="13.04" height="251.11" style="fill: rgb(255, 255, 255); opacity: 0.5; isolation: isolate; transform-origin: 118.21px 135.825px;" class="animable"></rect></g><rect x="86.08" y="10.27" width="13.04" height="261.44" style="fill: rgb(64, 123, 255); transform-origin: 92.6px 140.99px;" id="elxwuy2p56vmi" class="animable"></rect><g id="eltywntokuxi"><rect x="86.08" y="10.27" width="13.04" height="261.44" style="fill: rgb(255, 255, 255); opacity: 0.6; isolation: isolate; transform-origin: 92.6px 140.99px;" class="animable"></rect></g><rect x="106.32" y="10.27" width="13.04" height="261.44" style="fill: rgb(64, 123, 255); transform-origin: 112.84px 140.99px;" id="el5ziofw5fg7k" class="animable"></rect><g id="elbloqa2ypurn"><rect x="106.32" y="10.27" width="13.04" height="261.44" style="fill: rgb(255, 255, 255); opacity: 0.6; isolation: isolate; transform-origin: 112.84px 140.99px;" class="animable"></rect></g></g><g id="freepik--Character--inject-2" class="animable" style="transform-origin: 295.03px 235.084px;"><path d="M341.61,182.05a7,7,0,0,0-9.89-.15l-.14.14c-.57.55-1.31,1.25-2,1.88l-2.13,2c-1.43,1.29-2.91,2.55-4.39,3.79q-4.5,3.74-9.16,7.15c-3.11,2.28-6.34,4.39-9.61,6.38a104.34,104.34,0,0,1-9.22,4.91,11,11,0,0,1-3.85-1.31,38.58,38.58,0,0,1-6.43-4.38c-2.14-1.74-4.22-3.68-6.27-5.69s-4.08-4.17-6-6.23l-.1-.11a3.49,3.49,0,0,0-5.67,4,73.05,73.05,0,0,0,4.84,8.12,71.38,71.38,0,0,0,5.89,7.54,42.77,42.77,0,0,0,7.61,6.8,25.27,25.27,0,0,0,5.16,2.74,16.51,16.51,0,0,0,6.92,1.11,5.38,5.38,0,0,0,1.58-.34l.24-.09a101.08,101.08,0,0,0,11.85-5.39,114.78,114.78,0,0,0,11-6.65c3.54-2.39,6.94-4.95,10.22-7.65,1.63-1.37,3.24-2.75,4.82-4.18.79-.72,1.59-1.43,2.36-2.18s1.51-1.48,2.37-2.37A7,7,0,0,0,341.61,182.05Z" style="fill: rgb(255, 181, 115); transform-origin: 304.972px 200.347px;" id="elkabap9pkgyp" class="animable"></path><path d="M341.34,173.64c-12.78.29-25.18,16.86-25.18,16.86l11.34,21.05s11.92-6.14,17.13-10.9C354.52,191.61,348.66,173.47,341.34,173.64Z" style="fill: rgb(64, 123, 255); transform-origin: 333.013px 192.594px;" id="ely8ixuv0rut" class="animable"></path><path d="M272.82,185.47a3.73,3.73,0,0,0-2.13-2.75c-.85-.39-1.81-.66-2.58-1L266,180.3a59.74,59.74,0,0,1-7.48-8.33c-.9-1.26-2.25.61-1.09,2.86a35.19,35.19,0,0,0,3.85,5l-3.39,5a2.52,2.52,0,0,0,.23,3.09l3.93,4.8a12.35,12.35,0,0,0,7.61,6l4.89-3.86Z" style="fill: rgb(255, 181, 115); transform-origin: 265.765px 185.142px;" id="el6b0z005ttr" class="animable"></path><path d="M339,149.53c-1.24,7.84-6.12,19-1.78,25.84,0,0-5.19,7.19-23.15,11-7.72-11.38-.26-13.79-.26-13.79,7-1,6.76-6.08,7.24-12.87Z" style="fill: rgb(255, 181, 115); transform-origin: 324.785px 167.95px;" id="elxcp3bgzjts" class="animable"></path><path d="M313.38,131.05c-.28,1-1,1.64-1.68,1.46s-.94-1.14-.65-2.13,1-1.64,1.68-1.45S313.67,130.05,313.38,131.05Z" style="fill: rgb(38, 50, 56); transform-origin: 312.215px 130.719px;" id="el3pyylms9rrh" class="animable"></path><path d="M313,129.05l-2.18-1.37S311.51,129.86,313,129.05Z" style="fill: rgb(38, 50, 56); transform-origin: 311.91px 128.455px;" id="elmbkp39xaq8" class="animable"></path><path d="M314.05,123.23a.59.59,0,0,1-.15-.58.61.61,0,0,1,.75-.41,6,6,0,0,1,4.11,3.68.6.6,0,0,1-.4.75h0a.6.6,0,0,1-.76-.39,4.77,4.77,0,0,0-3.28-2.88A.59.59,0,0,1,314.05,123.23Z" style="fill: rgb(38, 50, 56); transform-origin: 316.332px 124.459px;" id="ela8bzynlywu9" class="animable"></path><path d="M312.3,130.91s-2.91,3.77-5.34,5.29c1,1.59,3.33,1.67,3.33,1.67Z" style="fill: rgb(237, 137, 62); transform-origin: 309.63px 134.39px;" id="el2p67zss2vpg" class="animable"></path><path d="M347.35,137.63c-4.25,11.93-5.79,17.07-13.71,21.53-11.93,6.71-25.65-1.11-25.05-14.06.54-11.66,7.39-29.2,20.66-30.61a17.27,17.27,0,0,1,18.1,23.14Z" style="fill: rgb(255, 181, 115); transform-origin: 328.494px 138px;" id="elysfsgk2nj7q" class="animable"></path><path d="M319.05,136.7c-3.78,7.39,4.06,23.88,16.85,23.86,14.62,0,23.45-24.25,19.11-28.55,1.6-14.63-10.9-22.71-32-21.26C311.91,102.7,303.78,126.7,319.05,136.7Z" style="fill: rgb(245, 245, 245); transform-origin: 333.384px 134.844px;" id="elq9ktgagcqll" class="animable"></path><path d="M324.14,152.8c-2.81,3.58,4,12.18,13.47,11.81,11.28-.45,5.14-9.06,5.14-9.06Z" style="fill: rgb(245, 245, 245); transform-origin: 333.959px 158.711px;" id="elby8ux7v3vko" class="animable"></path><path d="M355,132.26h-.12a.26.26,0,0,1-.1-.34c3.17-5.54,1.18-9.8-1-12.4-5.85-6.83-19.35-9.63-28.87-6a.25.25,0,0,1-.32-.15.23.23,0,0,1,.13-.31h0c9.7-3.71,23.45-.85,29.43,6.12,3.3,3.85,3.69,8.46,1.11,13A.24.24,0,0,1,355,132.26Z" style="fill: rgb(245, 245, 245); transform-origin: 340.758px 121.85px;" id="el4qarw5zhs9b" class="animable"></path><path d="M323,110.75c-3.24-3.16-10.28-3.28-14.76,4.35C312.37,112.54,323,110.75,323,110.75Z" style="fill: rgb(245, 245, 245); transform-origin: 315.62px 111.909px;" id="elztht0082gzi" class="animable"></path><path d="M348.52,128c8.8-4.71,9.19-7.66,13.49-6s6.71,11.44.35,12.67-11.69.57-13-.62S346.46,129.05,348.52,128Z" style="fill: rgb(64, 123, 255); transform-origin: 356.889px 128.431px;" id="elgqqmru2oyv" class="animable"></path><path d="M323.57,138.76a9.28,9.28,0,0,1-5.48,4.46c-3.11.91-4.35-1.59-3.51-4.55.75-2.66,2.92-6.62,6.06-6.23S325,136.1,323.57,138.76Z" style="fill: rgb(255, 181, 115); transform-origin: 319.244px 137.912px;" id="elmy33y3jvy5" class="animable"></path><path d="M314.31,253.19l19.91,33.71c-12.9,15.85-38.19,26.2-60.87.09-27.64-31.81-47.84-67.39-29.31-75.57C266.34,201.58,314.31,253.19,314.31,253.19Z" style="fill: rgb(64, 123, 255); transform-origin: 285.552px 256.545px;" id="elt765qxl44fq" class="animable"></path><g id="el40chheh5e8r"><path d="M314.31,253.19l19.91,33.71c-12.9,15.85-38.19,26.2-60.87.09-27.64-31.81-47.84-67.39-29.31-75.57C266.34,201.58,314.31,253.19,314.31,253.19Z" style="fill: rgb(255, 255, 255); opacity: 0.4; isolation: isolate; transform-origin: 285.552px 256.545px;" class="animable"></path></g><path d="M351.12,281.47c7.87,6.67,21.88,19.52,20,21-9.32,7.4-19.25-8.89-29.36-6.34C343.18,288.94,351.12,281.47,351.12,281.47Z" style="fill: rgb(38, 50, 56); transform-origin: 356.526px 292.942px;" id="elk642g9xnbyd" class="animable"></path><path d="M356.51,249c6.47,19.39,11.07,57.63-23.53,57.63-56.76,0-104.64.9-109.24-18.83s72.1-23.73,72.1-23.73,1.72-9,3.22-16.94C336.22,242.17,356.51,249,356.51,249Z" style="fill: rgb(64, 123, 255); transform-origin: 292.287px 275.98px;" id="el9ink8aqt9q" class="animable"></path><g id="eliqhx6uspk6"><path d="M356.51,249c6.47,19.39,11.07,57.63-23.53,57.63-56.76,0-104.64.9-109.24-18.83s72.1-23.73,72.1-23.73,1.72-9,3.22-16.94C336.22,242.17,356.51,249,356.51,249Z" style="fill: rgb(255, 255, 255); opacity: 0.6; isolation: isolate; transform-origin: 292.287px 275.98px;" class="animable"></path></g><path d="M307.39,172.52c8.46-2.36,26.66-5,43.2,2.89,8.89,4.27,10.16,15.44,9,25.23-2.68,22.24-3.06,31.5-3.06,48.34-4.91,12.44-56.16,10.92-57.45-1.86-2.84-20.08-7.45-43.57-4.23-57C297.72,178.05,302.32,173.93,307.39,172.52Z" style="fill: rgb(64, 123, 255); transform-origin: 326.852px 213.835px;" id="el0gbytt3mqm68" class="animable"></path><path d="M298.76,245.05c-1.7,1.62-2.49,5.81-.82,8,2,2.63,15.05,10.71,37,9.27,26.64-1.75,25.66-10,21.57-15.42-3.59,4.17-12.51,9-31.93,7.42S298.76,245.05,298.76,245.05Z" style="fill: rgb(255, 255, 255); transform-origin: 327.853px 253.77px;" id="elxm3nx76q6xi" class="animable"></path><path d="M309.69,176.52a7,7,0,0,0-9.1,3.89v.1c-.34.82-.76,1.83-1.16,2.75l-1.24,2.84c-.84,1.89-1.72,3.76-2.63,5.63-1.81,3.72-3.74,7.37-5.79,10.89-1,1.76-2.1,3.47-3.21,5.14s-2.25,3.28-3.45,4.82a42,42,0,0,1-6.78,7,36,36,0,0,1-4.87.18c-2.37-.08-4.85-.27-7.34-.59s-5-.68-7.57-1.11-5.13-.92-7.61-1.37h-.13a3.5,3.5,0,0,0-2.29,6.53,80.57,80.57,0,0,0,7.54,3.51c2.56,1,5.18,2,7.87,2.77a64.75,64.75,0,0,0,8.36,2,36.77,36.77,0,0,0,9.37.45,5.21,5.21,0,0,0,2.3-.78l.29-.18a48.32,48.32,0,0,0,11.12-9.94,90.53,90.53,0,0,0,8.21-11.26,131.14,131.14,0,0,0,6.61-11.88q1.49-3,2.85-6.12c.45-1,.9-2.06,1.33-3.11s.83-2.06,1.27-3.26A7,7,0,0,0,309.69,176.52Z" style="fill: rgb(255, 181, 115); transform-origin: 279.366px 204.043px;" id="elhhgwmjurh2i" class="animable"></path><path d="M306.05,173.05c-12,4.33-17.25,25.17-17.25,25.17,1.46,5.54,8.2,12.31,16.17,15.17,0,0,9.46-9.55,12.78-15.77C324.78,184.45,313,170.59,306.05,173.05Z" style="fill: rgb(64, 123, 255); transform-origin: 304.355px 193.077px;" id="elzqtj2f4j7y" class="animable"></path><path d="M233.87,221l-.41-5.78a2.5,2.5,0,0,1,2.31-2.68h0l4.17-.26a7.86,7.86,0,0,1,4.63,1.14l8.58,5.23-1.47,6.05c-5.91.68-9-.27-9-.27L236,223.24A2.49,2.49,0,0,1,233.87,221Z" style="fill: rgb(255, 181, 115); transform-origin: 243.302px 218.604px;" id="elfxp9zirh49c" class="animable"></path><path d="M371.83,111.77c-14.92,0-24.3,9.45-10.47,35.76,12.78,24.31-22.36,19.19-3.69,43.63-2.13-14.44,31.89-19.27,26.19-37.29-5.19-16.4.55-15.49,2.14-25C387.91,117.42,381.84,111.78,371.83,111.77Z" style="fill: rgb(245, 245, 245); transform-origin: 369.214px 151.465px;" id="elcbs7uznhjuo" class="animable"></path><path d="M346,171.89a.29.29,0,0,1,0-.13.26.26,0,0,1,.32-.17c6.09,1.91,9.82-.94,11.89-3.68,5.42-7.17,5.27-21-.33-29.47a.25.25,0,1,1,.42-.28c5.7,8.68,5.84,22.73.3,30.06a10.7,10.7,0,0,1-12.43,3.85A.28.28,0,0,1,346,171.89Z" style="fill: rgb(245, 245, 245); transform-origin: 354.33px 155.388px;" id="el532t7nlnrvg" class="animable"></path><rect x="179.22" y="303.46" width="231.57" height="55.19" rx="8.08" style="fill: rgb(64, 123, 255); transform-origin: 295.005px 331.055px;" id="elwu5npo42yy" class="animable"></rect><rect x="188.48" y="358.65" width="213.05" height="2.8" style="fill: rgb(38, 50, 56); transform-origin: 295.005px 360.05px;" id="elluvngz1sb9k" class="animable"></rect><g id="elgpg6rc0zn5g"><rect x="179.22" y="303.46" width="55.45" height="55.19" rx="8.08" style="opacity: 0.2; isolation: isolate; transform-origin: 206.945px 331.055px;" class="animable"></rect></g><path d="M413.06,318.28a13.78,13.78,0,0,1-13.77,13.77,13.42,13.42,0,0,1-2.61-.25,199.77,199.77,0,0,0-36.26-3.75c-26.26,0-43.46,8.35-62.35,8.35s-31.18-6.35-60.85-6.35c-18.7,0-29.5,2.18-45.08,3.8a13.76,13.76,0,0,1-15.07-12.33,12.57,12.57,0,0,1-.07-1.37v-8.22c0-6.1,4.17-11.05,9.31-11.05H403.75c5.14,0,9.31,4.95,9.31,11.05Z" style="fill: rgb(64, 123, 255); transform-origin: 295.03px 318.64px;" id="elrqj1t5zmr3q" class="animable"></path><g id="elciw5v7wtoyr"><path d="M413.06,318.28a13.78,13.78,0,0,1-13.77,13.77,13.42,13.42,0,0,1-2.61-.25,199.77,199.77,0,0,0-36.26-3.75c-26.26,0-43.46,8.35-62.35,8.35s-31.18-6.35-60.85-6.35c-18.7,0-29.5,2.18-45.08,3.8a13.76,13.76,0,0,1-15.07-12.33,12.57,12.57,0,0,1-.07-1.37v-8.22c0-6.1,4.17-11.05,9.31-11.05H403.75c5.14,0,9.31,4.95,9.31,11.05Z" style="fill: rgb(255, 255, 255); opacity: 0.8; isolation: isolate; transform-origin: 295.03px 318.64px;" class="animable"></path></g></g><g id="freepik--Cat--inject-2" class="animable" style="transform-origin: 128.422px 321.188px;"><path d="M112.4,362.44c-11.86-17.26,13.23-36.18,18.93-53.4s17.56-10.61,18.47,5.12,1.13,36.7-3.42,48.28A154.42,154.42,0,0,1,112.4,362.44Z" style="fill: rgb(38, 50, 56); transform-origin: 129.792px 331.12px;" id="eld74gnj81fvl" class="animable"></path><path d="M146.55,359a3.13,3.13,0,0,1,2.65,3.54,2.57,2.57,0,0,1-.08.4,16.44,16.44,0,0,1-6.33-.09Z" style="fill: rgb(38, 50, 56); transform-origin: 146.011px 361.102px;" id="elxmfhpd6jzz" class="animable"></path><path d="M124.17,362.44c-12.31,1.44-37.54,8.28-31.72-6.95s4.27-21.56.51-26.33c-3.16-4,2.91-6.08,6.5-1s3,11.86-2.78,26.58C92.06,366.42,121.18,356.3,124.17,362.44Z" style="fill: rgb(38, 50, 56); transform-origin: 107.881px 345.188px;" id="elnmofhcp0ao" class="animable"></path><g id="ellplxvgeph1"><ellipse cx="141.42" cy="298.87" rx="14.1" ry="12.18" style="fill: rgb(38, 50, 56); transform-origin: 141.42px 298.87px; transform: rotate(-11deg);" class="animable"></ellipse></g><path d="M144.44,287.77c.94-5.14,5.89-10.61,5.89-10.61s4.89,13.43,2.41,17.28C145.47,291.27,144.44,287.77,144.44,287.77Z" style="fill: rgb(38, 50, 56); transform-origin: 148.941px 285.8px;" id="elflvfz8dctfw" class="animable"></path><path d="M135.29,291.72c-3-4.23-9.86-7.06-9.86-7.06s1.33,14.23,5.22,16.64C135.86,295.33,135.29,291.72,135.29,291.72Z" style="fill: rgb(38, 50, 56); transform-origin: 130.369px 292.98px;" id="el3wuyop8yrck" class="animable"></path><path d="M165,303.12a.24.24,0,0,1-.21-.12,13.1,13.1,0,0,0-9.83-5.58.25.25,0,0,1-.24-.26h0a.25.25,0,0,1,.26-.24,13.64,13.64,0,0,1,10.24,5.82.27.27,0,0,1-.08.35A.32.32,0,0,1,165,303.12Z" style="fill: rgb(38, 50, 56); transform-origin: 159.987px 300.02px;" id="elxepbqtrnmtm" class="animable"></path><path d="M163.76,305.79a.24.24,0,0,1-.23-.16,13.1,13.1,0,0,0-8.51-7.45.24.24,0,0,1-.18-.29h0a.24.24,0,0,1,.29-.18h0a13.61,13.61,0,0,1,8.86,7.76.26.26,0,0,1-.15.32Z" style="fill: rgb(38, 50, 56); transform-origin: 159.418px 301.747px;" id="eln0nfxhemzm" class="animable"></path><path d="M161.49,306.71a.25.25,0,0,1-.24-.18,13.11,13.11,0,0,0-8-8,.26.26,0,0,1-.16-.32.24.24,0,0,1,.3-.16h0a13.62,13.62,0,0,1,8.32,8.32.25.25,0,0,1-.17.31Z" style="fill: rgb(38, 50, 56); transform-origin: 157.399px 302.375px;" id="el54cw5xcr803" class="animable"></path><path d="M124.09,306.49H124a.25.25,0,0,1-.09-.34,13.59,13.59,0,0,1,10.24-5.82.25.25,0,0,1,.26.23.26.26,0,0,1-.24.27,13,13,0,0,0-9.83,5.58A.24.24,0,0,1,124.09,306.49Z" style="fill: rgb(38, 50, 56); transform-origin: 129.144px 303.414px;" id="elvrfpvg4k15e" class="animable"></path><path d="M125.29,309.16h-.08a.24.24,0,0,1-.16-.3v0a13.55,13.55,0,0,1,8.85-7.76.25.25,0,0,1,.3.18.24.24,0,0,1-.18.31h0a13.11,13.11,0,0,0-8.51,7.44A.22.22,0,0,1,125.29,309.16Z" style="fill: rgb(38, 50, 56); transform-origin: 129.626px 305.127px;" id="el9q04wskh1ws" class="animable"></path><path d="M127.56,310.05h-.06a.27.27,0,0,1-.18-.31,13.63,13.63,0,0,1,8.32-8.33.25.25,0,0,1,.32.15h0a.23.23,0,0,1-.13.3h0a13.06,13.06,0,0,0-8,8A.26.26,0,0,1,127.56,310.05Z" style="fill: rgb(38, 50, 56); transform-origin: 131.646px 305.723px;" id="el11os7ukwhuz" class="animable"></path></g><defs>     <filter id="active" height="200%">         <feMorphology in="SourceAlpha" result="DILATED" operator="dilate" radius="2"></feMorphology>                <feFlood flood-color="#32DFEC" flood-opacity="1" result="PINK"></feFlood>        <feComposite in="PINK" in2="DILATED" operator="in" result="OUTLINE"></feComposite>        <feMerge>            <feMergeNode in="OUTLINE"></feMergeNode>            <feMergeNode in="SourceGraphic"></feMergeNode>        </feMerge>    </filter>    <filter id="hover" height="200%">        <feMorphology in="SourceAlpha" result="DILATED" operator="dilate" radius="2"></feMorphology>                <feFlood flood-color="#ff0000" flood-opacity="0.5" result="PINK"></feFlood>        <feComposite in="PINK" in2="DILATED" operator="in" result="OUTLINE"></feComposite>        <feMerge>            <feMergeNode in="OUTLINE"></feMergeNode>            <feMergeNode in="SourceGraphic"></feMergeNode>        </feMerge>            <feColorMatrix type="matrix" values="0   0   0   0   0                0   1   0   0   0                0   0   0   0   0                0   0   0   1   0 "></feColorMatrix>    </filter></defs></svg>